<?xml version="1.0" encoding="UTF-8"?>
<!-- Generator: visioncortex VTracer 0.6.4 -->
<svg version="1.1" xmlns="http://www.w3.org/2000/svg" width="512" height="512">
<path d="M0 0 C13.57 11.48 22.25 25.09 30.93 40.34 C34.41 46.44 38.05 52.45 41.69 58.47 C44.06 62.39 46.41 66.33 48.69 70.3 C49.1 71.02 49.52 71.73 49.94 72.47 C50.84 74.4 50.84 74.4 50.84 77.4 C51.5 77.4 52.16 77.4 52.84 77.4 C53.13 78.02 53.42 78.64 53.72 79.27 C56.23 84.45 58.96 89.21 62.23 93.94 C63.84 96.4 65.25 98.9 66.64 101.49 C69.73 107.21 72.89 112.87 76.09 118.53 C76.65 119.53 77.22 120.52 77.8 121.55 C83.86 132.24 90.08 142.83 96.43 153.35 C99.84 159 103.14 164.68 106.27 170.49 C111.43 180.05 116.82 189.46 122.53 198.71 C125.88 204.15 129.12 209.6 132.12 215.25 C134.08 218.85 136.13 222.39 138.18 225.94 C145.74 239.05 152.96 251.66 156.84 266.4 C157.19 267.66 157.54 268.92 157.9 270.21 C158.99 274.64 159.33 278.99 159.53 283.53 C159.56 284.36 159.6 285.19 159.64 286.05 C160.69 313.57 151.48 338.41 133.84 359.4 C133.14 360.32 132.45 361.24 131.73 362.19 C131.1 362.92 130.48 363.65 129.84 364.4 C129.18 364.4 128.52 364.4 127.84 364.4 C127.51 365.39 127.18 366.38 126.84 367.4 C124.94 369.09 123.06 370.63 121.03 372.15 C120.44 372.59 119.85 373.04 119.25 373.49 C108.93 381.15 98.13 386.65 85.84 390.4 C85.07 390.66 84.3 390.91 83.5 391.18 C71.39 394.6 58.81 393.84 46.33 393.82 C43.64 393.83 40.95 393.84 38.26 393.85 C31.73 393.87 25.21 393.87 18.68 393.87 C13.37 393.87 8.06 393.87 2.74 393.88 C1.21 393.88 -0.33 393.89 -1.86 393.89 C-3.01 393.89 -3.01 393.89 -4.18 393.89 C-18.61 393.91 -33.05 393.91 -47.48 393.9 C-60.65 393.9 -73.81 393.92 -86.98 393.95 C-100.53 393.98 -114.09 394 -127.65 393.99 C-135.24 393.99 -142.84 394 -150.43 394.02 C-156.9 394.04 -163.37 394.05 -169.84 394.03 C-173.13 394.02 -176.42 394.02 -179.71 394.04 C-211.81 394.2 -237.42 385.72 -260.85 363.03 C-265.61 358.17 -269.5 353.12 -273.16 347.4 C-273.59 346.81 -274.01 346.21 -274.45 345.6 C-288.72 324.89 -292.51 297.12 -288.61 272.75 C-286.05 259.34 -280.29 247.16 -273.79 235.28 C-273.27 234.34 -272.76 233.39 -272.23 232.42 C-267.74 224.28 -262.96 216.33 -258.06 208.43 C-254.71 203.02 -251.56 197.54 -248.54 191.94 C-246.68 188.53 -244.69 185.21 -242.66 181.9 C-239.56 176.78 -236.59 171.62 -233.75 166.35 C-224.4 149.05 -224.4 149.05 -219.97 142.65 C-217.78 139.48 -216.03 136.25 -214.35 132.78 C-211.86 127.67 -209.07 122.81 -206.11 117.96 C-201.49 110.36 -197.08 102.65 -192.65 94.94 C-187.05 85.19 -181.43 75.45 -175.6 65.84 C-171.94 59.78 -168.51 53.63 -165.16 47.4 C-155.18 28.92 -155.18 28.92 -149.63 21.45 C-148.08 19.36 -148.08 19.36 -146.62 16.81 C-144.21 12.83 -141.62 9.89 -137.16 8.4 C-136.76 7.54 -136.76 7.54 -136.36 6.67 C-134.61 3.37 -131.87 1.4 -128.97 -0.85 C-128.04 -1.57 -128.04 -1.57 -127.09 -2.31 C-89.6 -30.61 -36.64 -28.77 0 0 Z M-136.16 179.4 C-134.87 182.64 -133.6 185.64 -132.04 188.71 C-131.68 189.41 -131.33 190.11 -130.96 190.83 C-130.7 191.35 -130.43 191.87 -130.16 192.4 C-129.5 192.4 -128.84 192.4 -128.16 192.4 C-128.05 193.14 -127.94 193.88 -127.83 194.64 C-127.13 197.54 -126.21 199.13 -124.47 201.53 C-122.24 204.72 -120.26 207.94 -118.42 211.38 C-114.94 217.84 -111.31 224.22 -107.66 230.59 C-107.14 231.49 -107.14 231.49 -106.62 232.42 C-98.6 246.43 -90.49 260.39 -82.28 274.29 C-78.21 281.17 -74.18 288.05 -70.41 295.11 C-69.06 297.58 -67.63 299.99 -66.16 302.4 C-61.94 300.99 -61.01 298.01 -59.04 294.28 C-58.24 292.81 -57.44 291.35 -56.63 289.88 C-56.22 289.14 -55.82 288.39 -55.4 287.62 C-53.5 284.22 -51.49 280.91 -49.47 277.59 C-46.35 272.43 -43.36 267.23 -40.51 261.91 C-38.75 258.64 -36.9 255.41 -35.04 252.18 C-34.01 250.43 -34.01 250.43 -34.16 248.4 C-33.5 248.4 -32.84 248.4 -32.16 248.4 C-31.88 247.79 -31.6 247.18 -31.3 246.55 C-27.3 238.22 -22.66 230.33 -17.92 222.41 C-15.45 218.28 -13 214.15 -10.68 209.93 C-7.18 203.56 -3.38 197.36 0.38 191.13 C0.94 190.2 1.5 189.26 2.07 188.29 C2.58 187.45 3.09 186.6 3.61 185.73 C5.05 183.22 5.05 183.22 5.84 179.4 C-41.02 179.4 -87.88 179.4 -136.16 179.4 Z " fill="#57B869" transform="translate(311.16015625,70.59765625)"/>
<path d="M0 0 C3.14 3.7 5.57 7.57 7.88 11.81 C11.67 18.68 15.59 25.48 19.56 32.25 C25.23 41.92 30.8 51.64 36.35 61.38 C40.54 68.75 44.79 76.08 49.2 83.33 C51.16 86.57 53.03 89.84 54.81 93.19 C57.69 98.57 60.84 103.78 64 109 C67.57 114.91 71.08 120.82 74.32 126.91 C76.27 130.49 78.3 134.01 80.33 137.53 C87.89 150.64 95.12 163.25 99 178 C99.35 179.26 99.7 180.52 100.06 181.81 C101.15 186.23 101.49 190.58 101.69 195.12 C101.74 196.37 101.74 196.37 101.8 197.64 C102.85 225.16 93.64 250.01 76 271 C75.3 271.92 74.61 272.84 73.89 273.79 C73.26 274.52 72.64 275.25 72 276 C71.34 276 70.68 276 70 276 C69.67 276.99 69.34 277.98 69 279 C67.1 280.69 65.22 282.23 63.19 283.75 C62.6 284.19 62.01 284.63 61.41 285.09 C51.1 292.74 40.29 298.29 28 302 C27.16 302.26 26.31 302.51 25.45 302.78 C15.19 305.52 5.24 305.38 -5.3 305.29 C-7.23 305.29 -9.16 305.28 -11.1 305.28 C-16.14 305.27 -21.18 305.24 -26.22 305.21 C-31.38 305.18 -36.55 305.16 -41.71 305.15 C-51.81 305.11 -61.9 305.06 -72 305 C-72.67 303.82 -72.67 303.82 -73.36 302.62 C-75.05 299.65 -76.75 296.68 -78.44 293.71 C-79.17 292.44 -79.9 291.16 -80.63 289.89 C-85.42 281.49 -90.25 273.1 -95.12 264.75 C-95.72 263.73 -96.31 262.72 -96.92 261.67 C-99.9 256.57 -102.9 251.47 -105.91 246.38 C-106.88 244.75 -106.88 244.75 -107.86 243.08 C-109.09 241 -110.32 238.92 -111.56 236.84 C-114.22 232.32 -116.66 228.12 -118 223 C-118.66 223 -119.32 223 -120 223 C-120.33 221.35 -120.66 219.7 -121 218 C-121.66 218 -122.32 218 -123 218 C-123.69 216.19 -123.69 216.19 -124 214 C-123.6 213.6 -123.2 213.21 -122.79 212.8 C-120.22 210.21 -118.53 207.13 -116.69 204 C-116.29 203.33 -115.89 202.65 -115.47 201.96 C-112.75 197.34 -110.13 192.67 -107.6 187.95 C-105.59 184.23 -103.51 180.55 -101.44 176.88 C-98.27 171.26 -95.12 165.64 -92 160 C-91.34 160 -90.68 160 -90 160 C-89.91 159.31 -89.82 158.62 -89.73 157.91 C-88.83 154.31 -87.26 151.67 -85.36 148.48 C-85 147.87 -84.63 147.25 -84.26 146.62 C-83.09 144.66 -81.92 142.7 -80.75 140.75 C-79.6 138.81 -78.45 136.88 -77.3 134.94 C-76.55 133.68 -75.8 132.42 -75.05 131.16 C-72.7 127.21 -70.43 123.22 -68.22 119.19 C-65.7 114.66 -63.06 110.21 -60.44 105.75 C-59.87 104.78 -59.31 103.82 -58.73 102.82 C-56.06 98.28 -53.39 94.05 -50 90 C-48.76 87.32 -48.76 87.32 -48 85 C-47.34 85 -46.68 85 -46 85 C-45.63 84.01 -45.63 84.01 -45.25 83 C-43.68 79.23 -41.85 75.63 -40 72 C-39.42 70.84 -38.85 69.69 -38.25 68.5 C-37.84 67.68 -37.43 66.85 -37 66 C-36.34 66 -35.68 66 -35 66 C-34.34 63.69 -33.68 61.38 -33 59 C-32.34 59 -31.68 59 -31 59 C-30.75 58.34 -30.5 57.68 -30.25 57 C-28.68 53.23 -26.85 49.63 -25 46 C-24.42 44.84 -23.85 43.69 -23.25 42.5 C-22.84 41.68 -22.43 40.85 -22 40 C-21.34 40 -20.68 40 -20 40 C-19.73 39.32 -19.46 38.64 -19.19 37.94 C-17.84 34.6 -16.42 31.3 -15 28 C-14.34 28 -13.68 28 -13 28 C-12.34 25.69 -11.68 23.38 -11 21 C-10.34 21 -9.68 21 -9 21 C-8.34 18.69 -7.68 16.38 -7 14 C-6.34 14 -5.68 14 -5 14 C-3.08 9.42 -1.54 4.72 0 0 Z " fill="#F8D547" transform="translate(369,159)"/>
<path d="M0 0 C2.31 -0.01 4.61 -0.02 6.92 -0.03 C11.75 -0.04 16.58 -0.02 21.41 0.02 C27.6 0.08 33.78 0.05 39.97 -0.01 C44.73 -0.05 49.49 -0.04 54.25 -0.01 C56.53 -0 58.81 -0.01 61.09 -0.03 C78.88 -0.18 78.88 -0.18 83.9 3.54 C86.55 7.16 87.91 9.82 87.91 14.33 C88.57 14.33 89.23 14.33 89.91 14.33 C90.48 15.5 91.05 16.67 91.64 17.88 C93.65 21.89 95.85 25.73 98.16 29.58 C102.75 37.3 107.22 45.09 111.66 52.89 C120.36 68.16 129.19 83.35 138.13 98.48 C142.2 105.36 146.17 112.26 149.91 119.33 C150.53 120.48 151.15 121.64 151.79 122.83 C152.91 125.33 152.91 125.33 152.91 128.33 C153.57 128.33 154.23 128.33 154.91 128.33 C155.24 129.98 155.57 131.63 155.91 133.33 C156.57 133.33 157.23 133.33 157.91 133.33 C158.31 134.15 158.7 134.96 159.11 135.8 C161.18 139.86 163.43 143.77 165.72 147.7 C166.2 148.53 166.68 149.35 167.17 150.2 C171.57 157.77 175.99 165.33 180.41 172.89 C185.65 181.86 190.84 190.86 196.02 199.86 C196.62 200.9 197.21 201.93 197.83 203 C198.35 203.91 198.88 204.82 199.41 205.75 C200.45 207.53 201.51 209.29 202.6 211.04 C203.91 213.33 203.91 213.33 203.91 215.33 C179.6 215.45 155.28 215.53 130.97 215.59 C119.68 215.61 108.38 215.65 97.09 215.71 C87.24 215.76 77.39 215.79 67.55 215.8 C62.34 215.81 57.13 215.82 51.92 215.86 C47 215.89 42.09 215.9 37.17 215.89 C35.38 215.9 33.59 215.9 31.8 215.92 C2.79 216.22 -21.98 205.09 -42.78 184.95 C-47.54 180.1 -51.43 175.04 -55.09 169.33 C-55.73 168.43 -55.73 168.43 -56.38 167.52 C-70.65 146.81 -74.44 119.04 -70.54 94.67 C-67.98 81.27 -62.22 69.09 -55.71 57.2 C-55.2 56.26 -54.69 55.32 -54.16 54.35 C-49.67 46.21 -44.89 38.26 -39.99 30.36 C-36.73 25.1 -33.65 19.8 -30.76 14.33 C-30.21 13.34 -29.66 12.35 -29.09 11.33 C-28.74 10.08 -28.74 10.08 -28.38 8.81 C-23.96 -2.9 -10.44 -0.11 0 0 Z " fill="#4687F7" transform="translate(93.08984375,248.671875)"/>
<path d="M0 0 C6.99 8.39 11.87 18.4 17 28 C17.62 29.15 18.24 30.31 18.88 31.5 C20 34 20 34 20 37 C20.66 37 21.32 37 22 37 C22.5 39.48 22.5 39.48 23 42 C23.66 42 24.32 42 25 42 C25.4 42.82 25.79 43.63 26.2 44.48 C28.27 48.53 30.52 52.45 32.81 56.38 C33.29 57.2 33.77 58.02 34.26 58.87 C38.66 66.44 43.08 74 47.5 81.56 C52.74 90.53 57.93 99.53 63.11 108.54 C63.71 109.57 64.3 110.6 64.92 111.67 C65.44 112.58 65.97 113.49 66.5 114.43 C67.54 116.2 68.6 117.96 69.69 119.71 C71 122 71 122 71 124 C23.48 124 -24.04 124 -73 124 C-69.58 117.85 -66.12 111.76 -62.55 105.7 C-61.62 104.08 -60.73 102.45 -59.9 100.77 C-59 99 -59 99 -57.25 96.94 C-53.06 91.46 -50.05 85.17 -47 79 C-45.83 76.65 -44.35 74.69 -42.81 72.56 C-39.07 67.27 -35.98 61.74 -33 56 C-32.34 56 -31.68 56 -31 56 C-30.86 55.2 -30.86 55.2 -30.72 54.38 C-29.76 51.22 -28.15 48.7 -26.44 45.88 C-23.91 42.18 -23.91 42.18 -23 38 C-22.44 37.48 -21.89 36.97 -21.31 36.44 C-18.62 33.6 -17.06 30.67 -15.23 27.24 C-14 25 -14 25 -11.81 21.81 C-9.87 19.06 -9.87 19.06 -8.94 15.81 C-7.96 12.87 -7.16 12.08 -5 10 C-2.75 6.21 -2.75 6.21 -2 2 C-1.34 2 -0.68 2 0 2 C0 1.34 0 0.68 0 0 Z " fill="#6794F8" transform="translate(226,340)"/>
<path d="M0 0 C0.5 0.99 0.5 0.99 1 2 C1.99 2.33 2.98 2.66 4 3 C4.67 5.33 5.34 7.67 6 10 C7.3 11.69 8.63 13.36 10 15 C10.62 17.19 10.62 17.19 11 19 C11.99 19.99 11.99 19.99 13 21 C13.17 22.18 13.33 23.35 13.5 24.56 C13.67 25.7 13.83 26.83 14 28 C14.66 28.33 15.32 28.66 16 29 C16.62 31 17 33 17.38 35.06 C17.87 37.11 17.87 37.11 19.56 38.56 C20.04 39.04 20.51 39.51 21 40 C21 40.99 21 41.98 21 43 C22.49 43.99 22.49 43.99 24 45 C25.06 47.1 25.06 47.1 26 49.62 C26.34 50.51 26.68 51.4 27.02 52.32 C27.64 54.01 28.25 55.7 28.85 57.4 C30 61.43 30 61.43 33 64 C33.82 65.67 33.82 65.67 34.56 67.75 C34.82 68.47 35.08 69.19 35.34 69.93 C36 72 36 72 36.56 74.94 C36.71 75.62 36.85 76.3 37 77 C37.66 77.33 38.32 77.66 39 78 C39.22 79.21 39.22 79.21 39.44 80.44 C39.77 83.34 39.77 83.34 43 85 C46 90.33 46 90.33 46 93 C46.47 93.76 46.95 94.53 47.44 95.31 C49 98 49 98 49.45 100.34 C50.06 103.27 51.08 105.53 52.44 108.19 C53.09 109.48 53.09 109.48 53.75 110.79 C54.93 113.11 54.93 113.11 57 115 C57 116.32 57 117.64 57 119 C57.66 120.32 58.32 121.64 59 123 C97.94 123.33 136.88 123.66 177 124 C175 126 175 126 172.81 126.25 C171.89 126.25 170.97 126.25 170.02 126.25 C168.97 126.25 167.91 126.26 166.82 126.26 C165.65 126.25 164.48 126.25 163.28 126.24 C161.43 126.25 161.43 126.25 159.55 126.25 C156.13 126.25 152.72 126.25 149.3 126.24 C145.66 126.23 142.01 126.23 138.37 126.23 C131.3 126.23 124.23 126.22 117.16 126.2 C111.46 126.19 105.77 126.18 100.07 126.18 C43.04 126.13 -13.98 125.73 -71 125 C-68.79 119.38 -65.94 114.27 -63 109 C-62.27 107.68 -61.54 106.36 -60.82 105.04 C-54.28 93.26 -54.28 93.26 -50.81 88.25 C-48.62 85.07 -46.87 81.85 -45.19 78.38 C-42.7 73.26 -39.91 68.41 -36.95 63.56 C-32.33 55.96 -27.92 48.25 -23.49 40.54 C-17.43 30 -11.34 19.49 -5.03 9.1 C-3.23 6.12 -1.49 3.15 0 0 Z " fill="#5EBC8E" transform="translate(142,125)"/>
<path d="M0 0 C0.5 1.98 0.5 1.98 1 4 C1.66 4 2.32 4 3 4 C3.72 5.73 4.43 7.45 5.15 9.18 C6.07 11.27 6.07 11.27 8 14 C8 15.32 8 16.64 8 18 C8.66 18.33 9.32 18.66 10 19 C11.07 21.34 11.9 23.55 12.44 26.06 C13.14 28.5 14.47 29.98 16 32 C16.7 33.65 17.37 35.32 18 37 C18.37 37.72 18.74 38.44 19.12 39.19 C20 41 20 41 20 43 C20.66 43.66 21.32 44.32 22 45 C23.19 47.5 23.19 47.5 24 50 C23.5 50.99 23.5 50.99 23 52 C24.98 52.5 24.98 52.5 27 53 C26.67 55.31 26.34 57.62 26 60 C26.66 60 27.32 60 28 60 C28 60.66 28 61.32 28 62 C28.66 62.33 29.32 62.66 30 63 C32.06 66.63 33.39 69.87 34 74 C34.66 74 35.32 74 36 74 C36 75.32 36 76.64 36 78 C40.29 78 44.58 78 49 78 C49 78.33 49 78.66 49 79 C17.98 79 -13.04 79 -45 79 C-42.75 73.37 -39.95 68.29 -37 63 C-36.27 61.68 -35.54 60.36 -34.82 59.04 C-28.28 47.26 -28.28 47.26 -24.81 42.25 C-22.62 39.07 -20.87 35.85 -19.19 32.38 C-13.7 21.09 -6.8 10.52 0 0 Z " fill="#89C7F8" transform="translate(116,171)"/>
<path d="M0 0 C2.86 3.43 5.21 6.88 7.4 10.77 C8.04 11.89 8.67 13.02 9.33 14.18 C9.66 14.77 10 15.36 10.34 15.97 C12.11 19.12 13.89 22.26 15.68 25.39 C16.04 26.03 16.4 26.67 16.77 27.33 C20.32 33.58 23.93 39.79 27.56 46 C28.11 46.93 28.66 47.87 29.22 48.83 C29.75 49.73 30.27 50.63 30.82 51.56 C31.33 52.44 31.84 53.32 32.37 54.22 C33.56 56.24 34.75 58.26 35.96 60.28 C36.6 61.36 37.24 62.45 37.9 63.56 C38.79 65.05 38.79 65.05 39.7 66.57 C41 69 41 69 41 71 C13.61 71 -13.78 71 -42 71 C-40 68 -40 68 -38.17 65.79 C-35.6 62.48 -33.46 59.03 -31.31 55.44 C-30.91 54.78 -30.51 54.12 -30.09 53.44 C-27.88 49.86 -27.88 49.86 -26.57 45.91 C-26 44 -26 44 -23 42 C-22.66 40.67 -22.32 39.34 -22 38 C-21.37 37.41 -21.37 37.41 -20.73 36.8 C-18.24 34.21 -16.56 31.15 -14.75 28.06 C-14.16 27.07 -14.16 27.07 -13.56 26.05 C-12.76 24.69 -11.96 23.33 -11.16 21.97 C-10.09 20.16 -9.01 18.35 -7.93 16.55 C-7.31 15.53 -6.7 14.5 -6.06 13.44 C-5.52 12.53 -4.97 11.62 -4.41 10.68 C-2.92 7.85 -1.95 5.05 -1 2 C-0.67 1.34 -0.34 0.68 0 0 Z " fill="#91A2F8" transform="translate(256,393)"/>
<path d="M0 0 C0.33 0.66 0.66 1.32 1 2 C1.99 2.33 2.98 2.66 4 3 C4 3.99 4 4.98 4 6 C4.66 6.66 5.32 7.32 6 8 C6.14 8.74 6.29 9.49 6.44 10.25 C7.11 13.53 8.46 16.04 10 19 C10.67 20.66 11.34 22.33 12 24 C12.33 24.64 12.66 25.28 13 25.94 C14.27 28.55 15.1 31.24 16 34 C16.39 34.91 16.78 35.81 17.19 36.75 C17.46 37.49 17.72 38.24 18 39 C17.67 39.66 17.34 40.32 17 41 C19.47 40.5 19.47 40.5 22 40 C22 40.99 22 41.98 22 43 C22.82 47.7 23.85 51.32 27 55 C27.7 56.32 28.37 57.65 29 59 C29.5 59.96 29.5 59.96 30 60.94 C31.91 64.87 33.41 68.65 34 73 C33.67 73.66 33.34 74.32 33 75 C33.99 74.67 34.98 74.34 36 74 C37.5 76.9 38.76 79.83 39.94 82.88 C41.07 85.75 42.24 88.48 43.62 91.25 C45 94 45 94 47 100 C117.78 100.5 117.78 100.5 190 101 C187.36 103.64 186.17 103.25 182.48 103.25 C181.3 103.26 180.13 103.27 178.92 103.27 C177.63 103.27 176.33 103.26 175 103.26 C173.62 103.26 172.25 103.27 170.87 103.27 C167.13 103.28 163.39 103.27 159.65 103.27 C155.71 103.26 151.78 103.27 147.85 103.27 C141.22 103.28 134.59 103.27 127.96 103.26 C120.35 103.25 112.75 103.25 105.14 103.26 C98.58 103.27 92.02 103.27 85.46 103.27 C81.56 103.27 77.65 103.27 73.75 103.27 C27.68 103.34 27.68 103.34 21 100 C21 99.01 21 98.02 21 97 C20.01 96.5 20.01 96.5 19 96 C18.86 95.09 18.71 94.19 18.56 93.25 C17.97 89.83 16.84 87.89 15 85 C15 84.34 15 83.68 15 83 C14.34 83 13.68 83 13 83 C13.09 81.82 13.09 81.82 13.19 80.62 C13.13 79.76 13.06 78.89 13 78 C11.51 77.01 11.51 77.01 10 76 C9.63 74.01 9.29 72.01 9 70 C8.34 69.34 7.68 68.68 7 68 C6.16 65.99 5.48 63.94 4.78 61.88 C4.06 59.8 4.06 59.8 2 58 C2 56.68 2 55.36 2 54 C1.04 53.07 1.04 53.07 0.06 52.12 C-2.52 49.46 -2.53 47.6 -3 44 C-3.66 43.34 -4.32 42.68 -5 42 C-5.67 40 -6.33 38 -7 36 C-7.66 35.34 -8.32 34.68 -9 34 C-9.4 31.68 -9.74 29.34 -10 27 C-10.66 27 -11.32 27 -12 27 C-12.96 23.91 -13.18 22.44 -11.92 19.41 C-11.37 18.52 -10.82 17.62 -10.25 16.7 C-9.66 15.72 -9.07 14.75 -8.47 13.74 C-7.84 12.73 -7.21 11.73 -6.56 10.69 C-5.94 9.66 -5.31 8.63 -4.67 7.58 C-3.13 5.04 -1.57 2.52 0 0 Z " fill="#71C3AE" transform="translate(129,148)"/>
<path d="M0 0 C0.66 0.33 1.32 0.66 2 1 C2.62 4.06 2.62 4.06 3 7 C3.66 7 4.32 7 5 7 C5.5 9.48 5.5 9.48 6 12 C6.66 12 7.32 12 8 12 C8.68 13.39 8.68 13.39 9.38 14.81 C10.94 18.04 10.94 18.04 13 21 C12.81 23.12 12.81 23.12 12 26 C11.54 27.89 11.54 27.89 11.06 29.81 C8.69 36.85 4.22 42.92 0.21 49.11 C-1.9 52.41 -3.87 55.8 -5.84 59.18 C-7 61 -7 61 -9 63 C-9.14 63.66 -9.29 64.32 -9.44 65 C-10 67 -10 67 -13 69 C-13.7 70.65 -14.36 72.32 -15 74 C-16.26 76.33 -17.56 78.62 -18.88 80.91 C-20.12 83.09 -20.12 83.09 -21 86 C-21.66 86 -22.32 86 -23 86 C-23.43 87.18 -23.43 87.18 -23.88 88.38 C-25.13 91.31 -26.14 92.57 -29 94 C-30.96 94.09 -32.92 94.11 -34.88 94.1 C-36.05 94.09 -37.22 94.09 -38.42 94.09 C-39.64 94.08 -40.86 94.07 -42.12 94.06 C-43.36 94.06 -44.59 94.05 -45.86 94.05 C-48.9 94.04 -51.95 94.02 -55 94 C-53.97 92.26 -52.95 90.53 -51.92 88.79 C-50.85 86.94 -50.85 86.94 -50.56 84.38 C-49.75 80.94 -47.49 79.43 -45 77 C-43.72 74.46 -43.72 74.46 -43 72 C-42 69 -42 69 -39.62 66.75 C-36.68 63.67 -35.61 60.91 -34 57 C-33.45 56.33 -32.89 55.65 -32.32 54.96 C-28.91 50.61 -26.23 45.88 -23.44 41.12 C-22.86 40.16 -22.28 39.19 -21.69 38.19 C-19.32 34.18 -17 30.24 -15.22 25.92 C-14 23 -14 23 -12 21.12 C-9.4 18.36 -8.68 15.62 -7.61 12.02 C-7 10 -7 10 -6 8 C-5.01 7.67 -4.02 7.34 -3 7 C-1.28 3.5 -1.28 3.5 0 0 Z " fill="#7B9BF8" transform="translate(243,370)"/>
<path d="M0 0 C3.83 4.72 6.19 7.9 7 14 C5.68 14.66 4.36 15.32 3 16 C3.99 18.97 3.99 18.97 5 22 C4.34 22 3.68 22 3 22 C2.73 22.74 2.46 23.49 2.19 24.25 C1 27 1 27 -0.44 28.89 C-2.01 31.01 -3.07 33.05 -4.19 35.44 C-6.32 39.79 -8.67 43.93 -11.19 48.06 C-11.86 49.17 -12.54 50.27 -13.23 51.41 C-15 54 -15 54 -17 55 C-18.31 57.31 -19.16 59.48 -20 62 C-20.93 63.66 -21.89 65.31 -22.88 66.94 C-23.39 67.79 -23.9 68.65 -24.43 69.53 C-26.28 72.45 -28.3 75.15 -30.5 77.81 C-32.5 80.72 -33.68 83.73 -35 87 C-35.66 87 -36.32 87 -37 87 C-37.08 87.74 -37.16 88.49 -37.25 89.25 C-38.14 92.51 -39.49 93.81 -42 96 C-42.66 95.34 -43.32 94.68 -44 94 C-43.75 94.89 -43.5 95.77 -43.25 96.69 C-43 100 -43 100 -44.69 102.75 C-46.77 104.78 -48.32 105.95 -51 107 C-50.67 108.32 -50.34 109.64 -50 111 C-50.66 111 -51.32 111 -52 111 C-51.67 111.99 -51.34 112.98 -51 114 C-51.66 114 -52.32 114 -53 114 C-54.14 116.2 -55.15 118.38 -56.06 120.69 C-57 123 -57 123 -58 124 C-60.53 124.07 -63.03 124.09 -65.56 124.06 C-66.27 124.06 -66.98 124.05 -67.72 124.05 C-69.48 124.04 -71.24 124.02 -73 124 C-69.62 117.84 -66.12 111.75 -62.55 105.7 C-61.62 104.08 -60.73 102.45 -59.9 100.77 C-59 99 -59 99 -57.25 96.94 C-53.06 91.46 -50.05 85.17 -47 79 C-45.83 76.65 -44.35 74.69 -42.81 72.56 C-39.07 67.27 -35.98 61.74 -33 56 C-32.34 56 -31.68 56 -31 56 C-30.86 55.2 -30.86 55.2 -30.72 54.38 C-29.76 51.22 -28.15 48.7 -26.44 45.88 C-23.91 42.18 -23.91 42.18 -23 38 C-22.44 37.48 -21.89 36.97 -21.31 36.44 C-18.62 33.6 -17.06 30.67 -15.23 27.24 C-14 25 -14 25 -11.81 21.81 C-9.87 19.06 -9.87 19.06 -8.94 15.81 C-7.96 12.87 -7.16 12.08 -5 10 C-2.75 6.21 -2.75 6.21 -2 2 C-1.34 2 -0.68 2 0 2 C0 1.34 0 0.68 0 0 Z " fill="#578FF8" transform="translate(226,340)"/>
<path d="M0 0 C0.33 1.32 0.66 2.64 1 4 C1.66 4 2.32 4 3 4 C3.72 5.73 4.43 7.45 5.15 9.18 C6.07 11.27 6.07 11.27 8 14 C8 15.32 8 16.64 8 18 C8.66 18.33 9.32 18.66 10 19 C11.07 21.34 11.9 23.55 12.44 26.06 C13.14 28.5 14.47 29.98 16 32 C16.7 33.65 17.37 35.32 18 37 C18.37 37.72 18.74 38.44 19.12 39.19 C20 41 20 41 20 43 C20.66 43.66 21.32 44.32 22 45 C23.19 47.5 23.19 47.5 24 50 C23.5 50.99 23.5 50.99 23 52 C24.32 52.33 25.64 52.66 27 53 C26.67 55.31 26.34 57.62 26 60 C26.66 60 27.32 60 28 60 C28 60.66 28 61.32 28 62 C28.99 62.5 28.99 62.5 30 63 C32.06 66.63 33.39 69.87 34 74 C34.66 74 35.32 74 36 74 C36 75.32 36 76.64 36 78 C40.29 78 44.58 78 49 78 C49 78.33 49 78.66 49 79 C44.55 79.07 40.11 79.13 35.66 79.16 C34.15 79.18 32.64 79.2 31.12 79.23 C28.94 79.26 26.77 79.28 24.59 79.29 C23.28 79.31 21.97 79.32 20.62 79.34 C16.71 78.97 14.3 78.09 11 76 C10.31 73.69 10.31 73.69 10 71 C9.48 69.97 8.97 68.94 8.44 67.88 C7 65 7 65 7 62 C6.34 61.67 5.68 61.34 5 61 C5.33 60.01 5.66 59.02 6 58 C4.52 57.5 4.52 57.5 3 57 C3 56.34 3 55.68 3 55 C2.34 54.34 1.68 53.68 1 53 C1 52.34 1 51.68 1 51 C0.53 50.53 0.05 50.05 -0.44 49.56 C-2 48 -2 48 -3 45 C-2.34 45 -1.68 45 -1 45 C-1.79 43.37 -2.58 41.75 -3.38 40.12 C-3.82 39.22 -4.26 38.32 -4.71 37.38 C-5.91 34.9 -5.91 34.9 -8 33 C-8.7 31.35 -9.36 29.68 -10 28 C-11.29 24.84 -11.29 24.84 -14 23 C-11.86 19.35 -9.71 15.71 -7.56 12.06 C-6.95 11.02 -6.34 9.98 -5.71 8.91 C-5.13 7.92 -4.54 6.93 -3.94 5.91 C-3.4 4.99 -2.86 4.08 -2.31 3.13 C-1 1 -1 1 0 0 Z " fill="#79C3D7" transform="translate(116,171)"/>
<path d="M0 0 C0.33 0 0.66 0 1 0 C1.36 1.46 1.71 2.92 2.06 4.38 C2.26 5.19 2.46 6 2.66 6.84 C3 9 3 9 2 11 C2.64 11.29 3.28 11.58 3.94 11.88 C6 13 6 13 7 15 C6.34 15 5.68 15 5 15 C5.47 15.52 5.95 16.03 6.44 16.56 C8.43 19.67 8.65 22.37 9 26 C9.99 25.67 10.98 25.34 12 25 C12.29 26.03 12.58 27.06 12.88 28.12 C13.82 31.45 14.88 34.73 16 38 C16.33 37.34 16.66 36.68 17 36 C17.12 37.92 17.12 37.92 17.25 39.88 C17.46 42.06 17.46 42.06 18 44 C19.92 45.38 19.92 45.38 22 46 C22.33 46.99 22.66 47.98 23 49 C22.34 49 21.68 49 21 49 C21.5 49.6 21.99 50.2 22.5 50.81 C24.29 53.42 24 54.94 24 58 C25.49 57.5 25.49 57.5 27 57 C27.5 59.47 27.5 59.47 28 62 C28.5 61.01 28.5 61.01 29 60 C29.34 61.46 29.67 62.92 30 64.38 C30.28 65.59 30.28 65.59 30.56 66.84 C31 69 31 69 31 71 C31.66 71.43 32.32 71.87 33 72.31 C33.66 72.87 34.32 73.43 35 74 C35 75.67 35 77.33 35 79 C35.87 80.88 36.9 82.6 37.99 84.36 C39 86 39 86 40.06 88.25 C40.93 90.11 40.93 90.11 42.69 91.5 C43.12 92 43.55 92.49 44 93 C43.62 95.13 43.62 95.13 43 97 C43.33 97.33 43.66 97.66 44 98 C46.41 100.88 48.47 103.56 50 107 C49.34 107.99 48.68 108.98 48 110 C48.99 110.33 49.98 110.66 51 111 C51 111.66 51 112.32 51 113 C51.97 115.02 52.97 117.02 54 119 C54.66 118.67 55.32 118.34 56 118 C56.66 122.29 57.32 126.58 58 131 C58.66 131 59.32 131 60 131 C63 135.38 63 135.38 63 138 C58.71 138 54.42 138 50 138 C49.67 136.68 49.34 135.36 49 134 C47.98 132.86 47.98 132.86 46.94 131.69 C44.48 128.27 44.68 126.11 45 122 C44.01 121.5 44.01 121.5 43 121 C39.9 116.75 39.9 116.75 40.31 113.69 C40.54 113.13 40.77 112.57 41 112 C40.01 111.5 40.01 111.5 39 111 C38.33 109.67 37.67 108.33 37 107 C36.53 106.57 36.05 106.13 35.56 105.69 C33.23 103.17 32.31 100.14 31 97 C30.01 96.01 30.01 96.01 29 95 C29.66 95 30.32 95 31 95 C31 94.01 31 93.02 31 92 C29.35 91.34 27.7 90.68 26 90 C26.37 88.89 26.37 88.89 26.75 87.75 C26.83 86.84 26.91 85.94 27 85 C26.42 84.44 25.84 83.89 25.25 83.31 C22.78 80.77 22.43 79.49 21.56 76.12 C20.63 72.59 19.71 70.27 17.25 67.56 C16.51 66.72 15.76 65.87 15 65 C15.33 64.01 15.66 63.02 16 62 C15.25 58.72 15.25 58.72 12 57 C12 55.68 12 54.36 12 53 C11.01 52.34 10.02 51.68 9 51 C7.94 48.25 7.94 48.25 7 45 C6.63 43.95 6.26 42.9 5.88 41.81 C5 39 5 39 5 36 C4.01 35.67 3.02 35.34 2 35 C1.9 34.28 1.79 33.56 1.69 32.81 C0.7 28.77 -1.07 25.93 -4 23 C-3.67 22.01 -3.34 21.02 -3 20 C-3.66 19.67 -4.32 19.34 -5 19 C-5 18.34 -5 17.68 -5 17 C-5.66 16.67 -6.32 16.34 -7 16 C-6.67 9.78 -3.47 4.99 0 0 Z " fill="#5BBA7D" transform="translate(150,111)"/>
<path d="M0 0 C2.5 2.28 4.05 4.6 5.68 7.55 C6.19 8.47 6.7 9.38 7.23 10.33 C7.77 11.31 8.31 12.3 8.88 13.31 C14.1 22.7 19.48 31.97 25.04 41.17 C25.56 42.04 26.08 42.91 26.61 43.8 C27.08 44.57 27.54 45.33 28.01 46.12 C29 48 29 48 29 50 C21.49 50.03 13.98 50.04 6.47 50.05 C3.91 50.06 1.35 50.07 -1.21 50.08 C-4.87 50.09 -8.54 50.09 -12.21 50.1 C-13.36 50.1 -14.51 50.11 -15.69 50.11 C-16.75 50.11 -17.81 50.11 -18.91 50.11 C-19.84 50.12 -20.78 50.12 -21.75 50.12 C-24 50 -24 50 -26 49 C-24.49 45.23 -24.49 45.23 -22 44.06 C-19.22 42.59 -19.12 40.9 -18 38 C-16.44 35.89 -14.74 33.97 -13 32 C-13.66 32 -14.32 32 -15 32 C-15 30.35 -15 28.7 -15 27 C-14.01 27.66 -13.02 28.32 -12 29 C-12.33 28.67 -12.66 28.34 -13 28 C-12.6 24.2 -11.78 22.55 -9 20 C-8.67 19.01 -8.34 18.02 -8 17 C-7.01 16.67 -6.02 16.34 -5 16 C-5 14.68 -5 13.36 -5 12 C-4.67 11.67 -4.34 11.34 -4 11 C-4.66 10.01 -5.32 9.02 -6 8 C-4.68 6.68 -3.36 5.36 -2 4 C-1.01 4.33 -0.02 4.66 1 5 C0.67 3.35 0.34 1.7 0 0 Z " fill="#A5A9F7" transform="translate(268,414)"/>
<path d="M0 0 C1.17 2.34 2.32 4.69 3.44 7.06 C4.77 9.98 4.77 9.98 6.75 11.56 C7.37 12.27 7.37 12.27 8 13 C7.69 15.69 7.69 15.69 7 18 C7.8 18.52 8.61 19.03 9.44 19.56 C12.73 22.69 12.62 24.56 13 29 C14.19 33.58 15.92 36.42 19 40 C20 42 20 42 20.94 45 C21.78 48.07 21.78 48.07 24 50 C24.53 51.42 25.01 52.86 25.44 54.31 C26.57 57.9 27.97 60.82 30 64 C30.53 65.33 30.53 65.33 31.06 66.69 C31.88 69.14 31.88 69.14 34 71 C35.25 73.72 36.08 76.34 36.81 79.25 C38.64 85.02 41.66 89.98 45 95 C45.37 96.66 45.71 98.33 46 100 C46.77 103.09 46.77 103.09 49.06 104.94 C51 107 51 107 51 111 C51.99 111.99 51.99 111.99 53 113 C50.24 114.38 47.95 114.1 44.88 114.06 C43.78 114.05 42.68 114.04 41.55 114.04 C40.29 114.02 40.29 114.02 39 114 C38.79 113.09 38.59 112.19 38.38 111.25 C37.02 106.42 34.64 102.11 32.34 97.67 C31 95 31 95 30 92 C29.35 90.66 28.68 89.32 28 88 C27.34 88 26.68 88 26 88 C26.09 86.64 26.09 86.64 26.19 85.25 C25.98 81.63 25.24 80.7 23 78 C23 77.01 23 76.02 23 75 C22.34 74.34 21.68 73.68 21 73 C20.38 70.88 20.38 70.88 20 69 C19.34 69 18.68 69 18 69 C17.88 68.42 17.75 67.84 17.62 67.25 C17.08 65 17.08 65 16 63.06 C14.58 60.13 14 57.25 14 54 C12.68 54 11.36 54 10 54 C9.9 53.13 9.79 52.27 9.69 51.38 C8.96 47.82 7.7 45.19 6 42 C5 39 5 39 4 36 C3.34 35.67 2.68 35.34 2 35 C2.5 34.5 2.5 34.5 3 34 C1.79 30.37 0.72 27.72 -2 25 C-2.12 22.38 -2.12 22.38 -2 20 C-2.66 20 -3.32 20 -4 20 C-4.33 19.01 -4.66 18.02 -5 17 C-4.67 16.67 -4.34 16.34 -4 16 C-4.66 15.67 -5.32 15.34 -6 15 C-6.85 9.59 -3.87 6.26 -1 2 C-0.67 1.34 -0.34 0.68 0 0 Z " fill="#64BEA1" transform="translate(136,135)"/>
<path d="M0 0 C0.33 0 0.66 0 1 0 C1 1.98 1 3.96 1 6 C1.66 5.67 2.32 5.34 3 5 C5 8.75 5 8.75 5 11 C5.5 11.8 5.99 12.61 6.5 13.44 C8 16 8 16 8 19 C8.66 19.33 9.32 19.66 10 20 C10.34 22 10.67 24 11 26 C11.66 26.66 12.32 27.32 13 28 C14.69 29.94 14.69 29.94 16 32 C15.67 32.99 15.34 33.98 15 35 C15.66 35.33 16.32 35.66 17 36 C17.72 37.98 18.38 39.99 19 42 C19.65 43.67 20.32 45.34 21 47 C21.33 46.34 21.66 45.68 22 45 C22.14 45.6 22.29 46.2 22.44 46.81 C22.89 48.56 23.43 50.29 24 52 C23.67 52.66 23.34 53.32 23 54 C23.6 54.16 24.2 54.33 24.81 54.5 C28.12 56.77 29.14 60.15 30 64 C29.67 64.66 29.34 65.32 29 66 C29.99 66.5 29.99 66.5 31 67 C31.73 68.98 32.4 70.98 33 73 C33.33 73 33.66 73 34 73 C35 75 36 77 37 79 C36.67 79.66 36.34 80.32 36 81 C36.99 81.5 36.99 81.5 38 82 C39.19 83.94 39.19 83.94 40 86 C39.67 86.66 39.34 87.32 39 88 C39.99 88.5 39.99 88.5 41 89 C39.21 89.03 37.42 89.05 35.62 89.06 C34.63 89.07 33.63 89.09 32.6 89.1 C30 89 30 89 28 88 C28 87.01 28 86.02 28 85 C27.01 84.5 27.01 84.5 26 84 C25.86 83.09 25.71 82.19 25.56 81.25 C24.97 77.83 23.84 75.89 22 73 C22 72.34 22 71.68 22 71 C21.34 71 20.68 71 20 71 C20.09 69.82 20.09 69.82 20.19 68.62 C20.13 67.76 20.06 66.89 20 66 C18.51 65.01 18.51 65.01 17 64 C16.63 62.01 16.29 60.01 16 58 C15.34 57.34 14.68 56.68 14 56 C13.16 53.99 12.48 51.94 11.78 49.88 C11.06 47.8 11.06 47.8 9 46 C9 44.68 9 43.36 9 42 C8.04 41.07 8.04 41.07 7.06 40.12 C4.48 37.46 4.47 35.6 4 32 C3.34 31.34 2.68 30.68 2 30 C1.33 28 0.67 26 0 24 C-0.66 23.34 -1.32 22.68 -2 22 C-2.4 19.68 -2.74 17.34 -3 15 C-3.66 15 -4.32 15 -5 15 C-6 11.82 -6.19 10.42 -4.82 7.32 C-4.26 6.45 -3.7 5.58 -3.12 4.69 C-2.57 3.8 -2.02 2.92 -1.45 2.01 C-0.97 1.35 -0.49 0.68 0 0 Z " fill="#72C1C5" transform="translate(122,160)"/>
<path d="M0 0 C2 3 2 3 2 6 C2.99 6.33 3.98 6.66 5 7 C8 13.11 8 13.11 8 16 C9.31 18.01 10.65 20.01 12 22 C13.98 25.63 15.41 29.45 16.88 33.31 C18.41 36.97 20.2 40.47 22 44 C23.46 46.86 24.86 49.63 26 52.62 C26.9 55.07 26.9 55.07 28.62 57.06 C30 59 30 59 30 63 C30.5 64.49 30.5 64.49 31 66 C31.99 65.67 32.98 65.34 34 65 C34.99 65.66 35.98 66.32 37 67 C22.45 67.58 22.45 67.58 18 64 C17.31 61.69 17.31 61.69 17 59 C16.48 57.97 15.97 56.94 15.44 55.88 C14 53 14 53 14 50 C13.34 49.67 12.68 49.34 12 49 C12.33 48.01 12.66 47.02 13 46 C11.52 45.5 11.52 45.5 10 45 C10 44.34 10 43.68 10 43 C9.34 42.34 8.68 41.68 8 41 C8 40.34 8 39.68 8 39 C7.53 38.53 7.05 38.05 6.56 37.56 C5 36 5 36 4 33 C4.66 33 5.32 33 6 33 C5.21 31.37 4.42 29.75 3.62 28.12 C3.18 27.22 2.74 26.32 2.29 25.38 C1.09 22.9 1.09 22.9 -1 21 C-1.7 19.35 -2.36 17.68 -3 16 C-4.29 12.84 -4.29 12.84 -7 11 C-4.69 7.37 -2.38 3.74 0 0 Z " fill="#80C5E8" transform="translate(109,183)"/>
<path d="M0 0 C0.66 0 1.32 0 2 0 C5.37 4.26 7.4 8.84 9 14 C9.97 15.68 10.97 17.35 12 19 C13.56 21.93 14.91 24.71 15.94 27.88 C17.06 31.18 18.54 34.1 20.2 37.17 C21 39 21 39 21 42 C21.98 43.02 22.98 44.02 24 45 C25.55 47.49 26.04 49.25 26.5 52.19 C26.75 53.58 26.75 53.58 27 55 C27.66 55.33 28.32 55.66 29 56 C30 59 30 59 30 63 C30.99 63.33 31.98 63.66 33 64 C34.06 66.25 34.06 66.25 35 69 C36 71.67 37 74 38.5 76.44 C40.13 79.21 41.07 81.93 42 85 C42.33 85 42.66 85 43 85 C43.66 87.31 44.32 89.62 45 92 C46.65 92.33 48.3 92.66 50 93 C50 93.33 50 93.66 50 94 C48.58 94.05 47.17 94.09 45.75 94.12 C44.57 94.16 44.57 94.16 43.36 94.2 C40.79 93.98 39.21 93.29 37 92 C37 90.68 37 89.36 37 88 C36.02 86.98 35.02 85.98 34 85 C33.38 82.94 33.38 82.94 33 81 C32.17 78.83 32.17 78.83 30 78 C29.33 75.91 29 74.2 29 72 C28.34 71.67 27.68 71.34 27 71 C26.78 69.67 26.78 69.67 26.56 68.31 C25.95 64.71 24.83 62.15 23 59 C22.34 58.67 21.68 58.34 21 58 C21 56.68 21 55.36 21 54 C20.34 53.34 19.68 52.68 19 52 C16.29 49.29 15.98 46.68 15 43 C13.75 38.56 13.75 38.56 11 35 C8.32 30.98 6.8 27.79 6 23 C5.67 23.66 5.34 24.32 5 25 C4.17 22.11 4 20.11 4 17 C3.02 15.98 2.02 14.98 1 14 C1 13.01 1 12.02 1 11 C0.01 10.67 -0.98 10.34 -2 10 C-1.34 6.7 -0.68 3.4 0 0 Z " fill="#6DC0BA" transform="translate(124,156)"/>
<path d="M0 0 C0.66 0 1.32 0 2 0 C0.54 3.37 -1.34 5.61 -3.94 8.19 C-4.97 9.23 -4.97 9.23 -6.03 10.29 C-8 12 -8 12 -11 13 C-11 11 -11 11 -8.69 8.44 C-6 6 -6 6 -3 5 C-1.85 3.03 -1.85 3.03 -1 1 C-0.67 0.67 -0.34 0.34 0 0 Z " fill="#80C68F" transform="translate(177,74)"/>
<path d="M0 0 C0.33 0 0.66 0 1 0 C1.33 1.98 1.66 3.96 2 6 C1.36 6.29 0.72 6.58 0.06 6.88 C-2.15 7.83 -2.15 7.83 -3 10 C-3.66 9.67 -4.32 9.34 -5 9 C-3.35 6.03 -1.7 3.06 0 0 Z " fill="#78C390" transform="translate(150,111)"/>
<path d="M0 0 C1.32 1.65 2.64 3.3 4 5 C2.02 5.99 2.02 5.99 0 7 C-0.66 6.34 -1.32 5.68 -2 5 C-2 4.01 -2 3.02 -2 2 C-1.34 2 -0.68 2 0 2 C0 1.34 0 0.68 0 0 Z " fill="#6F9FED" transform="translate(226,340)"/>
<path d="M0 0 C1.5 1.38 1.5 1.38 3 3 C3 3.66 3 4.32 3 5 C1.35 5.33 -0.3 5.66 -2 6 C-1.34 4.02 -0.68 2.04 0 0 Z " fill="#649AF2" transform="translate(220,330)"/>
<path d="M0 0 C0.33 0 0.66 0 1 0 C1.31 2.31 1.31 2.31 1 5 C-1.5 6.81 -1.5 6.81 -4 8 C-2.88 5.03 -1.78 2.67 0 0 Z " fill="#89C6D1" transform="translate(122,160)"/>
</svg>
